<?xml version="1.0" standalone="no"?><!DOCTYPE svg PUBLIC "-//W3C//DTD SVG 1.1//EN" "http://www.w3.org/Graphics/SVG/1.1/DTD/svg11.dtd"><svg t="1647913542258" class="icon" viewBox="0 0 1024 1024" version="1.1" xmlns="http://www.w3.org/2000/svg" p-id="1983" xmlns:xlink="http://www.w3.org/1999/xlink" width="200" height="200"><defs><style type="text/css"></style></defs><path d="M512 64c246.4 0 448 198.4 448 448 0 246.4-201.6 448-448 448-249.6 0-448-201.6-448-448C64 262.4 262.4 64 512 64z m28.8 300.8v70.4h172.8v230.4h-57.6v-176h-115.2V896c198.4-16 355.2-182.4 355.2-384 0-214.4-172.8-384-384-384C297.6 128 128 297.6 128 512c0 201.6 156.8 368 355.2 384V492.8h-115.2v176H310.4v-233.6h172.8v-67.2l-169.6 16-3.2-28.8-3.2-28.8 403.2-35.2 3.2 28.8 3.2 28.8-176 16z" p-id="1984" fill="#ffffff"></path></svg>