<?xml version="1.0" standalone="no"?><!DOCTYPE svg PUBLIC "-//W3C//DTD SVG 1.1//EN" "http://www.w3.org/Graphics/SVG/1.1/DTD/svg11.dtd"><svg t="1647914016561" class="icon" viewBox="0 0 1024 1024" version="1.1" xmlns="http://www.w3.org/2000/svg" p-id="2541" xmlns:xlink="http://www.w3.org/1999/xlink" width="200" height="200"><defs><style type="text/css"></style></defs><path d="M928 480c-16 0-32 16-32 32 0 214.4-169.6 384-384 384-211.2 0-384-169.6-384-384C128 300.8 300.8 128 512 128c16 0 32-16 32-32s-16-32-32-32C262.4 64 64 265.6 64 512s201.6 448 448 448 448-201.6 448-448c0-16-16-32-32-32z" p-id="2542" fill="#ffffff"></path><path d="M697.6 112c-16 0-32 12.8-32 32 0 16 12.8 28.8 32 28.8h112l-185.6 185.6c-32-22.4-70.4-38.4-112-38.4-105.6 0-192 86.4-192 192s86.4 192 192 192 192-86.4 192-192c0-41.6-12.8-80-38.4-112l185.6-185.6v112c0 16 12.8 28.8 32 28.8 16 0 32-12.8 32-28.8V112h-217.6zM512 640c-70.4 0-128-57.6-128-128s57.6-128 128-128 128 57.6 128 128-57.6 128-128 128z" p-id="2543" fill="#ffffff"></path></svg>